<svg width="343" height="241" viewBox="0 0 343 241" fill="none" xmlns="http://www.w3.org/2000/svg">
<g clip-path="url(#clip0_1_3)">
<rect width="343" height="241" fill="white"/>
<circle cx="14.5" cy="205.5" r="7.5" fill="#3C3C3C"/>
<circle cx="315.5" cy="11.5" r="7.5" fill="#3C3C3C"/>
<path d="M10.0568 233V224.273H13.108C13.7159 224.273 14.2173 224.378 14.6122 224.588C15.0071 224.795 15.3011 225.075 15.4943 225.428C15.6875 225.777 15.7841 226.165 15.7841 226.591C15.7841 226.966 15.7173 227.276 15.5838 227.52C15.4531 227.764 15.2798 227.957 15.0639 228.099C14.8509 228.241 14.6193 228.347 14.3693 228.415V228.5C14.6364 228.517 14.9048 228.611 15.1747 228.781C15.4446 228.952 15.6705 229.196 15.8523 229.514C16.0341 229.832 16.125 230.222 16.125 230.682C16.125 231.119 16.0256 231.513 15.8267 231.862C15.6278 232.212 15.3139 232.489 14.8849 232.693C14.456 232.898 13.8977 233 13.2102 233H10.0568ZM11.1136 232.062H13.2102C13.9006 232.062 14.3906 231.929 14.6804 231.662C14.973 231.392 15.1193 231.065 15.1193 230.682C15.1193 230.386 15.044 230.114 14.8935 229.864C14.7429 229.611 14.5284 229.409 14.25 229.259C13.9716 229.105 13.642 229.028 13.2614 229.028H11.1136V232.062ZM11.1136 228.108H13.0739C13.392 228.108 13.679 228.045 13.9347 227.92C14.1932 227.795 14.3977 227.619 14.5483 227.392C14.7017 227.165 14.7784 226.898 14.7784 226.591C14.7784 226.207 14.6449 225.882 14.3778 225.615C14.1108 225.345 13.6875 225.21 13.108 225.21H11.1136V228.108ZM20.7763 224.273V233H19.7195V225.381H19.6683L17.5376 226.795V225.722L19.7195 224.273H20.7763Z" fill="black"/>
<line x1="13.7298" y1="204.579" x2="315.73" y2="10.5793" stroke="black"/>
<path d="M110.75 104H108.057V95.2727H110.869C111.716 95.2727 112.44 95.4474 113.043 95.7969C113.645 96.1435 114.107 96.642 114.428 97.2926C114.749 97.9403 114.909 98.7159 114.909 99.6193C114.909 100.528 114.747 101.311 114.423 101.967C114.099 102.621 113.628 103.124 113.009 103.476C112.389 103.825 111.636 104 110.75 104ZM109.114 103.062H110.682C111.403 103.062 112.001 102.923 112.476 102.645C112.95 102.366 113.304 101.97 113.537 101.456C113.77 100.942 113.886 100.33 113.886 99.6193C113.886 98.9148 113.771 98.3082 113.541 97.7997C113.311 97.2884 112.967 96.8963 112.51 96.6236C112.053 96.348 111.483 96.2102 110.801 96.2102H109.114V103.062ZM116.545 104V97.4545H117.551V104H116.545ZM117.057 96.3636C116.861 96.3636 116.692 96.2969 116.55 96.1634C116.411 96.0298 116.341 95.8693 116.341 95.6818C116.341 95.4943 116.411 95.3338 116.55 95.2003C116.692 95.0668 116.861 95 117.057 95C117.253 95 117.42 95.0668 117.56 95.2003C117.702 95.3338 117.773 95.4943 117.773 95.6818C117.773 95.8693 117.702 96.0298 117.56 96.1634C117.42 96.2969 117.253 96.3636 117.057 96.3636ZM124.029 98.9205L123.126 99.1761C123.069 99.0256 122.985 98.8793 122.875 98.7372C122.767 98.5923 122.619 98.473 122.431 98.3793C122.244 98.2855 122.004 98.2386 121.711 98.2386C121.311 98.2386 120.977 98.331 120.71 98.5156C120.446 98.6974 120.314 98.929 120.314 99.2102C120.314 99.4602 120.404 99.6577 120.586 99.8026C120.768 99.9474 121.052 100.068 121.439 100.165L122.41 100.403C122.995 100.545 123.431 100.763 123.718 101.055C124.005 101.345 124.149 101.719 124.149 102.176C124.149 102.551 124.041 102.886 123.825 103.182C123.612 103.477 123.314 103.71 122.93 103.881C122.547 104.051 122.1 104.136 121.592 104.136C120.924 104.136 120.372 103.991 119.934 103.702C119.497 103.412 119.22 102.989 119.103 102.432L120.058 102.193C120.149 102.545 120.321 102.81 120.574 102.986C120.829 103.162 121.163 103.25 121.575 103.25C122.044 103.25 122.416 103.151 122.691 102.952C122.97 102.75 123.109 102.509 123.109 102.227C123.109 102 123.029 101.81 122.87 101.656C122.711 101.5 122.467 101.384 122.137 101.307L121.047 101.051C120.447 100.909 120.007 100.689 119.725 100.391C119.447 100.089 119.308 99.7131 119.308 99.2614C119.308 98.892 119.412 98.5653 119.619 98.2812C119.829 97.9972 120.115 97.7741 120.475 97.6122C120.839 97.4503 121.251 97.3693 121.711 97.3693C122.359 97.3693 122.868 97.5114 123.237 97.7955C123.609 98.0795 123.873 98.4545 124.029 98.9205ZM128.509 97.4545V98.3068H125.117V97.4545H128.509ZM126.106 95.8864H127.112V102.125C127.112 102.409 127.153 102.622 127.235 102.764C127.32 102.903 127.428 102.997 127.559 103.045C127.692 103.091 127.833 103.114 127.981 103.114C128.092 103.114 128.183 103.108 128.254 103.097C128.325 103.082 128.381 103.071 128.424 103.062L128.629 103.966C128.56 103.991 128.465 104.017 128.343 104.043C128.221 104.071 128.066 104.085 127.879 104.085C127.594 104.085 127.316 104.024 127.043 103.902C126.773 103.78 126.549 103.594 126.37 103.344C126.194 103.094 126.106 102.778 126.106 102.398V95.8864ZM131.948 104.153C131.533 104.153 131.157 104.075 130.819 103.919C130.481 103.76 130.212 103.531 130.013 103.233C129.815 102.932 129.715 102.568 129.715 102.142C129.715 101.767 129.789 101.463 129.937 101.23C130.085 100.994 130.282 100.81 130.529 100.676C130.776 100.543 131.049 100.443 131.347 100.378C131.648 100.31 131.951 100.256 132.255 100.216C132.653 100.165 132.975 100.126 133.222 100.101C133.472 100.072 133.654 100.026 133.768 99.9602C133.884 99.8949 133.942 99.7812 133.942 99.6193V99.5852C133.942 99.1648 133.827 98.8381 133.597 98.6051C133.37 98.3722 133.025 98.2557 132.562 98.2557C132.082 98.2557 131.705 98.3608 131.433 98.571C131.16 98.7812 130.968 99.0057 130.857 99.2443L129.903 98.9034C130.073 98.5057 130.3 98.196 130.585 97.9744C130.871 97.75 131.184 97.5937 131.522 97.5057C131.863 97.4148 132.198 97.3693 132.528 97.3693C132.738 97.3693 132.979 97.3949 133.252 97.446C133.528 97.4943 133.793 97.5952 134.049 97.7486C134.308 97.902 134.522 98.1335 134.692 98.4432C134.863 98.7528 134.948 99.1676 134.948 99.6875V104H133.942V103.114H133.891C133.823 103.256 133.71 103.408 133.55 103.57C133.391 103.732 133.18 103.869 132.915 103.983C132.651 104.097 132.329 104.153 131.948 104.153ZM132.102 103.25C132.499 103.25 132.835 103.172 133.107 103.016C133.383 102.859 133.59 102.658 133.729 102.411C133.871 102.163 133.942 101.903 133.942 101.631V100.71C133.9 100.761 133.806 100.808 133.661 100.851C133.519 100.891 133.354 100.926 133.167 100.957C132.982 100.986 132.802 101.011 132.626 101.034C132.452 101.054 132.312 101.071 132.204 101.085C131.942 101.119 131.698 101.175 131.471 101.251C131.246 101.325 131.065 101.437 130.925 101.588C130.789 101.736 130.721 101.937 130.721 102.193C130.721 102.543 130.85 102.807 131.109 102.986C131.37 103.162 131.701 103.25 132.102 103.25ZM137.789 100.062V104H136.784V97.4545H137.755V98.4773H137.841C137.994 98.1449 138.227 97.8778 138.539 97.6761C138.852 97.4716 139.255 97.3693 139.75 97.3693C140.193 97.3693 140.581 97.4602 140.913 97.642C141.245 97.821 141.504 98.0938 141.689 98.4602C141.873 98.8239 141.966 99.2841 141.966 99.8409V104H140.96V99.9091C140.96 99.3949 140.826 98.9943 140.559 98.7074C140.292 98.4176 139.926 98.2727 139.46 98.2727C139.139 98.2727 138.852 98.3423 138.599 98.4815C138.349 98.6207 138.152 98.8239 138.007 99.0909C137.862 99.358 137.789 99.6818 137.789 100.062ZM146.462 104.136C145.849 104.136 145.32 103.991 144.877 103.702C144.434 103.412 144.093 103.013 143.854 102.504C143.616 101.996 143.496 101.415 143.496 100.761C143.496 100.097 143.619 99.5099 143.863 99.0014C144.11 98.4901 144.454 98.0909 144.894 97.804C145.337 97.5142 145.854 97.3693 146.445 97.3693C146.906 97.3693 147.32 97.4545 147.69 97.625C148.059 97.7955 148.362 98.0341 148.597 98.3409C148.833 98.6477 148.979 99.0057 149.036 99.4148H148.031C147.954 99.1165 147.783 98.8523 147.519 98.6222C147.258 98.3892 146.906 98.2727 146.462 98.2727C146.07 98.2727 145.727 98.375 145.431 98.5795C145.138 98.7812 144.91 99.0668 144.745 99.4361C144.583 99.8026 144.502 100.233 144.502 100.727C144.502 101.233 144.582 101.673 144.741 102.048C144.903 102.423 145.13 102.714 145.423 102.922C145.718 103.129 146.065 103.233 146.462 103.233C146.724 103.233 146.961 103.188 147.174 103.097C147.387 103.006 147.567 102.875 147.715 102.705C147.863 102.534 147.968 102.33 148.031 102.091H149.036C148.979 102.477 148.839 102.825 148.614 103.135C148.393 103.442 148.099 103.686 147.732 103.868C147.369 104.047 146.945 104.136 146.462 104.136ZM153.251 104.136C152.62 104.136 152.076 103.997 151.619 103.719C151.164 103.438 150.813 103.045 150.566 102.543C150.322 102.037 150.2 101.449 150.2 100.778C150.2 100.108 150.322 99.517 150.566 99.0057C150.813 98.4915 151.157 98.0909 151.597 97.804C152.04 97.5142 152.558 97.3693 153.148 97.3693C153.489 97.3693 153.826 97.4261 154.158 97.5398C154.491 97.6534 154.793 97.8381 155.066 98.0938C155.339 98.3466 155.556 98.6818 155.718 99.0994C155.88 99.517 155.961 100.031 155.961 100.642V101.068H150.915V100.199H154.938C154.938 99.8295 154.864 99.5 154.717 99.2102C154.572 98.9205 154.364 98.6918 154.094 98.5241C153.827 98.3565 153.512 98.2727 153.148 98.2727C152.748 98.2727 152.401 98.3722 152.109 98.571C151.819 98.767 151.596 99.0227 151.44 99.3381C151.283 99.6534 151.205 99.9915 151.205 100.352V100.932C151.205 101.426 151.29 101.845 151.461 102.189C151.634 102.53 151.874 102.79 152.181 102.969C152.488 103.145 152.844 103.233 153.251 103.233C153.515 103.233 153.754 103.196 153.967 103.122C154.183 103.045 154.369 102.932 154.525 102.781C154.681 102.628 154.802 102.437 154.887 102.21L155.859 102.483C155.756 102.812 155.585 103.102 155.343 103.352C155.102 103.599 154.803 103.793 154.448 103.932C154.093 104.068 153.694 104.136 153.251 104.136Z" fill="black"/>
<path d="M160.392 221.136C159.847 221.136 159.365 220.999 158.947 220.723C158.53 220.445 158.203 220.053 157.967 219.547C157.732 219.038 157.614 218.438 157.614 217.744C157.614 217.057 157.732 216.46 157.967 215.955C158.203 215.449 158.531 215.058 158.952 214.783C159.372 214.507 159.858 214.369 160.409 214.369C160.835 214.369 161.172 214.44 161.419 214.582C161.669 214.722 161.859 214.881 161.99 215.06C162.124 215.236 162.227 215.381 162.301 215.494H162.386V212.273H163.392V221H162.42V219.994H162.301C162.227 220.114 162.122 220.264 161.986 220.446C161.849 220.625 161.655 220.786 161.402 220.928C161.149 221.067 160.813 221.136 160.392 221.136ZM160.528 220.233C160.932 220.233 161.273 220.128 161.551 219.918C161.83 219.705 162.041 219.411 162.186 219.036C162.331 218.658 162.403 218.222 162.403 217.727C162.403 217.239 162.332 216.811 162.19 216.445C162.048 216.075 161.838 215.788 161.56 215.584C161.281 215.376 160.938 215.273 160.528 215.273C160.102 215.273 159.747 215.382 159.463 215.601C159.182 215.817 158.97 216.111 158.828 216.483C158.689 216.852 158.619 217.267 158.619 217.727C158.619 218.193 158.69 218.616 158.832 218.997C158.977 219.375 159.19 219.676 159.472 219.901C159.756 220.122 160.108 220.233 160.528 220.233ZM166.021 212.273L168.271 215.903H168.339L170.589 212.273H171.834L169.089 216.636L171.834 221H170.589L168.339 217.438H168.271L166.021 221H164.777L167.589 216.636L164.777 212.273H166.021Z" fill="black"/>
<path d="M326.392 119.136C325.847 119.136 325.365 118.999 324.947 118.723C324.53 118.445 324.203 118.053 323.967 117.547C323.732 117.038 323.614 116.438 323.614 115.744C323.614 115.057 323.732 114.46 323.967 113.955C324.203 113.449 324.531 113.058 324.952 112.783C325.372 112.507 325.858 112.369 326.409 112.369C326.835 112.369 327.172 112.44 327.419 112.582C327.669 112.722 327.859 112.881 327.99 113.06C328.124 113.236 328.227 113.381 328.301 113.494H328.386V110.273H329.392V119H328.42V117.994H328.301C328.227 118.114 328.122 118.264 327.986 118.446C327.849 118.625 327.655 118.786 327.402 118.928C327.149 119.067 326.813 119.136 326.392 119.136ZM326.528 118.233C326.932 118.233 327.273 118.128 327.551 117.918C327.83 117.705 328.041 117.411 328.186 117.036C328.331 116.658 328.403 116.222 328.403 115.727C328.403 115.239 328.332 114.811 328.19 114.445C328.048 114.075 327.838 113.788 327.56 113.584C327.281 113.376 326.938 113.273 326.528 113.273C326.102 113.273 325.747 113.382 325.463 113.601C325.182 113.817 324.97 114.111 324.828 114.483C324.689 114.852 324.619 115.267 324.619 115.727C324.619 116.193 324.69 116.616 324.832 116.997C324.977 117.375 325.19 117.676 325.472 117.901C325.756 118.122 326.108 118.233 326.528 118.233ZM330.76 110.273H331.97L334.391 114.347H334.493L336.913 110.273H338.124L334.97 115.403V119H333.913V115.403L330.76 110.273Z" fill="black"/>
<line x1="14" y1="202.5" x2="316" y2="202.5" stroke="black"/>
<line x1="315.5" y1="12" x2="315.5" y2="203" stroke="black"/>
</g>
<defs>
<clipPath id="clip0_1_3">
<rect width="343" height="241" fill="white"/>
</clipPath>
</defs>
</svg>
